<svg width="350" height="350" viewBox="0 0 350 350" fill="none" xmlns="http://www.w3.org/2000/svg">
<rect width="350" height="350" rx="50" fill="#1A2A29"/>
<mask id="path-3-outside-1_2035_2" maskUnits="userSpaceOnUse" x="65" y="127" width="224" height="118" fill="black">
<rect fill="white" x="65" y="127" width="224" height="118"/>
<path d="M120.9 243.8C113 243.8 105.7 242.4 99 239.6C92.4 236.7 86.6 232.65 81.6 227.45C76.7 222.25 72.9 216.15 70.2 209.15C67.5 202.15 66.15 194.5 66.15 186.2C66.15 177.8 67.5 170.1 70.2 163.1C72.9 156.1 76.7 150 81.6 144.8C86.5 139.6 92.3 135.6 99 132.8C105.7 129.9 113 128.45 120.9 128.45C128.6 128.45 135.5 129.8 141.6 132.5C147.8 135.2 153 138.7 157.2 143C161.5 147.3 164.55 151.9 166.35 156.8L152.85 162.95C150.25 156.75 146.2 151.75 140.7 147.95C135.2 144.05 128.6 142.1 120.9 142.1C113.1 142.1 106.15 143.95 100.05 147.65C94.05 151.35 89.35 156.5 85.95 163.1C82.55 169.7 80.85 177.4 80.85 186.2C80.85 194.9 82.55 202.55 85.95 209.15C89.35 215.75 94.05 220.9 100.05 224.6C106.15 228.3 113.1 230.15 120.9 230.15C128.6 230.15 135.2 228.25 140.7 224.45C146.2 220.55 150.25 215.5 152.85 209.3L166.35 215.45C164.55 220.35 161.5 224.95 157.2 229.25C153 233.55 147.8 237.05 141.6 239.75C135.5 242.45 128.6 243.8 120.9 243.8ZM230.895 242L190.545 130.25H206.295L240.495 228.5H237.345L271.545 130.25H287.295L247.095 242H230.895Z"/>
</mask>
<path d="M120.9 243.8C113 243.8 105.7 242.4 99 239.6C92.4 236.7 86.6 232.65 81.6 227.45C76.7 222.25 72.9 216.15 70.2 209.15C67.5 202.15 66.15 194.5 66.15 186.2C66.15 177.8 67.5 170.1 70.2 163.1C72.9 156.1 76.7 150 81.6 144.8C86.5 139.6 92.3 135.6 99 132.8C105.7 129.9 113 128.45 120.9 128.45C128.6 128.45 135.5 129.8 141.6 132.5C147.8 135.2 153 138.7 157.2 143C161.5 147.3 164.55 151.9 166.35 156.8L152.85 162.95C150.25 156.75 146.2 151.75 140.7 147.95C135.2 144.05 128.6 142.1 120.9 142.1C113.1 142.1 106.15 143.95 100.05 147.65C94.05 151.35 89.35 156.5 85.95 163.1C82.55 169.7 80.85 177.4 80.85 186.2C80.85 194.9 82.55 202.55 85.95 209.15C89.35 215.75 94.05 220.9 100.05 224.6C106.15 228.3 113.1 230.15 120.9 230.15C128.6 230.15 135.2 228.25 140.7 224.45C146.2 220.55 150.25 215.5 152.85 209.3L166.35 215.45C164.55 220.35 161.5 224.95 157.2 229.25C153 233.55 147.8 237.05 141.6 239.75C135.5 242.45 128.6 243.8 120.9 243.8ZM230.895 242L190.545 130.25H206.295L240.495 228.5H237.345L271.545 130.25H287.295L247.095 242H230.895Z" fill="#2A9D8F"/>
<path d="M99 239.6L98.5977 240.516L98.606 240.519L98.6144 240.523L99 239.6ZM81.6 227.45L80.8722 228.136L80.8792 228.143L81.6 227.45ZM70.2 209.15L71.133 208.79V208.79L70.2 209.15ZM70.2 163.1L71.133 163.46V163.46L70.2 163.1ZM81.6 144.8L82.3278 145.486V145.486L81.6 144.8ZM99 132.8L99.3856 133.723L99.3972 133.718L99 132.8ZM141.6 132.5L141.195 133.414L141.201 133.417L141.6 132.5ZM157.2 143L156.485 143.699L156.493 143.707L157.2 143ZM166.35 156.8L166.765 157.71L167.608 157.326L167.289 156.455L166.35 156.8ZM152.85 162.95L151.928 163.337L152.326 164.287L153.265 163.86L152.85 162.95ZM140.7 147.95L140.122 148.766L140.132 148.773L140.7 147.95ZM100.05 147.65L99.5314 146.795L99.5251 146.799L100.05 147.65ZM85.95 163.1L85.061 162.642V162.642L85.95 163.1ZM85.95 209.15L85.061 209.608V209.608L85.95 209.15ZM100.05 224.6L99.5251 225.451L99.5314 225.455L100.05 224.6ZM140.7 224.45L141.268 225.273L141.278 225.266L140.7 224.45ZM152.85 209.3L153.265 208.39L152.326 207.963L151.928 208.913L152.85 209.3ZM166.35 215.45L167.289 215.795L167.608 214.924L166.765 214.54L166.35 215.45ZM157.2 229.25L156.493 228.543L156.485 228.551L157.2 229.25ZM141.6 239.75L141.201 238.833L141.195 238.836L141.6 239.75ZM120.9 243.8V242.8C113.121 242.8 105.953 241.422 99.3856 238.677L99 239.6L98.6144 240.523C105.447 243.378 112.879 244.8 120.9 244.8V243.8ZM99 239.6L99.4023 238.684C92.9221 235.837 87.2303 231.863 82.3208 226.757L81.6 227.45L80.8792 228.143C85.9697 233.437 91.8779 237.563 98.5977 240.516L99 239.6ZM81.6 227.45L82.3278 226.764C77.5211 221.663 73.7887 215.675 71.133 208.79L70.2 209.15L69.267 209.51C72.0113 216.625 75.8789 222.837 80.8722 228.136L81.6 227.45ZM70.2 209.15L71.133 208.79C68.4818 201.917 67.15 194.39 67.15 186.2H66.15H65.15C65.15 194.61 66.5182 202.383 69.267 209.51L70.2 209.15ZM66.15 186.2H67.15C67.15 177.908 68.4823 170.332 71.133 163.46L70.2 163.1L69.267 162.74C66.5177 169.868 65.15 177.692 65.15 186.2H66.15ZM70.2 163.1L71.133 163.46C73.7887 156.575 77.5211 150.587 82.3278 145.486L81.6 144.8L80.8722 144.114C75.8789 149.413 72.0113 155.625 69.267 162.74L70.2 163.1ZM81.6 144.8L82.3278 145.486C87.13 140.39 92.8128 136.469 99.3856 133.723L99 132.8L98.6144 131.877C91.7872 134.73 85.87 138.81 80.8722 144.114L81.6 144.8ZM99 132.8L99.3972 133.718C105.962 130.876 113.125 129.45 120.9 129.45V128.45V127.45C112.875 127.45 105.438 128.924 98.6028 131.882L99 132.8ZM120.9 128.45V129.45C128.482 129.45 135.241 130.779 141.195 133.414L141.6 132.5L142.005 131.586C135.759 128.821 128.718 127.45 120.9 127.45V128.45ZM141.6 132.5L141.201 133.417C147.297 136.072 152.386 139.502 156.485 143.699L157.2 143L157.915 142.301C153.614 137.898 148.303 134.328 141.999 131.583L141.6 132.5ZM157.2 143L156.493 143.707C160.707 147.921 163.669 152.402 165.411 157.145L166.35 156.8L167.289 156.455C165.431 151.398 162.293 146.679 157.907 142.293L157.2 143ZM166.35 156.8L165.935 155.89L152.435 162.04L152.85 162.95L153.265 163.86L166.765 157.71L166.35 156.8ZM152.85 162.95L153.772 162.563C151.099 156.188 146.927 151.036 141.268 147.127L140.7 147.95L140.132 148.773C145.473 152.464 149.401 157.312 151.928 163.337L152.85 162.95ZM140.7 147.95L141.278 147.134C135.586 143.098 128.777 141.1 120.9 141.1V142.1V143.1C128.423 143.1 134.814 145.002 140.122 148.766L140.7 147.95ZM120.9 142.1V141.1C112.935 141.1 105.802 142.991 99.5314 146.795L100.05 147.65L100.569 148.505C106.498 144.909 113.265 143.1 120.9 143.1V142.1ZM100.05 147.65L99.5251 146.799C93.3619 150.6 88.5397 155.889 85.061 162.642L85.95 163.1L86.839 163.558C90.1603 157.111 94.7381 152.1 100.575 148.501L100.05 147.65ZM85.95 163.1L85.061 162.642C81.5757 169.408 79.85 177.27 79.85 186.2H80.85H81.85C81.85 177.53 83.5243 169.992 86.839 163.558L85.95 163.1ZM80.85 186.2H79.85C79.85 195.032 81.5765 202.844 85.061 209.608L85.95 209.15L86.839 208.692C83.5235 202.256 81.85 194.768 81.85 186.2H80.85ZM85.95 209.15L85.061 209.608C88.5397 216.361 93.3619 221.65 99.5251 225.451L100.05 224.6L100.575 223.749C94.7381 220.15 90.1603 215.139 86.839 208.692L85.95 209.15ZM100.05 224.6L99.5314 225.455C105.802 229.259 112.935 231.15 120.9 231.15V230.15V229.15C113.265 229.15 106.498 227.341 100.569 223.745L100.05 224.6ZM120.9 230.15V231.15C128.771 231.15 135.577 229.205 141.268 225.273L140.7 224.45L140.132 223.627C134.823 227.295 128.429 229.15 120.9 229.15V230.15ZM140.7 224.45L141.278 225.266C146.93 221.258 151.1 216.06 153.772 209.687L152.85 209.3L151.928 208.913C149.4 214.94 145.47 219.842 140.122 223.634L140.7 224.45ZM152.85 209.3L152.435 210.21L165.935 216.36L166.35 215.45L166.765 214.54L153.265 208.39L152.85 209.3ZM166.35 215.45L165.411 215.105C163.669 219.848 160.707 224.329 156.493 228.543L157.2 229.25L157.907 229.957C162.293 225.571 165.431 220.852 167.289 215.795L166.35 215.45ZM157.2 229.25L156.485 228.551C152.386 232.748 147.297 236.178 141.201 238.833L141.6 239.75L141.999 240.667C148.303 237.922 153.614 234.352 157.915 229.949L157.2 229.25ZM141.6 239.75L141.195 238.836C135.241 241.471 128.482 242.8 120.9 242.8V243.8V244.8C128.718 244.8 135.759 243.429 142.005 240.664L141.6 239.75ZM230.895 242L229.954 242.34L230.192 243H230.895V242ZM190.545 130.25V129.25H189.12L189.604 130.59L190.545 130.25ZM206.295 130.25L207.239 129.921L207.005 129.25H206.295V130.25ZM240.495 228.5V229.5H241.901L241.439 228.171L240.495 228.5ZM237.345 228.5L236.4 228.171L235.938 229.5H237.345V228.5ZM271.545 130.25V129.25H270.834L270.6 129.921L271.545 130.25ZM287.295 130.25L288.236 130.588L288.717 129.25H287.295V130.25ZM247.095 242V243H247.798L248.035 242.339L247.095 242ZM230.895 242L231.835 241.66L191.485 129.91L190.545 130.25L189.604 130.59L229.954 242.34L230.895 242ZM190.545 130.25V131.25H206.295V130.25V129.25H190.545V130.25ZM206.295 130.25L205.35 130.579L239.55 228.829L240.495 228.5L241.439 228.171L207.239 129.921L206.295 130.25ZM240.495 228.5V227.5H237.345V228.5V229.5H240.495V228.5ZM237.345 228.5L238.289 228.829L272.489 130.579L271.545 130.25L270.6 129.921L236.4 228.171L237.345 228.5ZM271.545 130.25V131.25H287.295V130.25V129.25H271.545V130.25ZM287.295 130.25L286.354 129.911L246.154 241.661L247.095 242L248.035 242.339L288.236 130.588L287.295 130.25ZM247.095 242V241H230.895V242V243H247.095V242Z" fill="white" mask="url(#path-3-outside-1_2035_2)"/>
</svg>
